<svg width="18" height="18" viewBox="0 0 18 18" fill="none" xmlns="http://www.w3.org/2000/svg">
<g clip-path="url(#clip0_18_2948)">
<path d="M8.99988 7.36362V10.8491H13.8435C13.6308 11.97 12.9925 12.9191 12.0353 13.5573L14.9562 15.8237C16.658 14.2528 17.6398 11.9455 17.6398 9.20462C17.6398 8.56645 17.5826 7.95275 17.4762 7.36371L8.99988 7.36362Z" fill="#4285F4"/>
<path d="M3.95602 10.713L3.29725 11.2173L0.965393 13.0336C2.4463 15.9709 5.48153 18 8.99968 18C11.4296 18 13.4669 17.1982 14.956 15.8237L12.0351 13.5573C11.2333 14.0973 10.2105 14.4246 8.99968 14.4246C6.65969 14.4246 4.67157 12.8455 3.9597 10.7182L3.95602 10.713Z" fill="#34A853"/>
<path d="M0.965384 4.96637C0.351781 6.17723 0 7.54361 0 8.99995C0 10.4563 0.351781 11.8227 0.965384 13.0335C0.965384 13.0417 3.95998 10.7099 3.95998 10.7099C3.77998 10.1699 3.67359 9.59721 3.67359 8.99986C3.67359 8.40251 3.77998 7.82981 3.95998 7.28982L0.965384 4.96637Z" fill="#FBBC05"/>
<path d="M8.99987 3.58363C10.3253 3.58363 11.5035 4.0418 12.4444 4.92545L15.0217 2.34821C13.4589 0.891874 11.4299 0 8.99987 0C5.48171 0 2.4463 2.02091 0.965393 4.96637L3.9599 7.29001C4.67167 5.16271 6.65988 3.58363 8.99987 3.58363Z" fill="#EA4335"/>
</g>
<defs>
<clipPath id="clip0_18_2948">
<rect width="18" height="18" fill="white"/>
</clipPath>
</defs>
</svg>
