<svg width="27" height="27" viewBox="0 0 27 27" fill="none" xmlns="http://www.w3.org/2000/svg">
<path d="M9.75 26H17.25C23.5 26 26 23.5 26 17.25V9.75C26 3.5 23.5 1 17.25 1H9.75C3.5 1 1 3.5 1 9.75V17.25C1 23.5 3.5 26 9.75 26Z" stroke="#DEE2E6" stroke-linecap="round" stroke-linejoin="round"/>
<path d="M21.1999 13.2H14.8V6.79995C14.8 6.35846 14.4416 6 13.9999 6C13.5584 6 13.2 6.35846 13.2 6.79995V13.2H6.79995C6.35846 13.2 6 13.5584 6 13.9999C6 14.4416 6.35846 14.8 6.79995 14.8H13.2V21.1999C13.2 21.6415 13.5584 22 13.9999 22C14.4416 22 14.8 21.6415 14.8 21.1999V14.8H21.1999C21.6415 14.8 22 14.4416 22 13.9999C22 13.5584 21.6415 13.2 21.1999 13.2Z" fill="black"/>
</svg>
