<svg width="19" height="19" viewBox="0 0 19 19" fill="none" xmlns="http://www.w3.org/2000/svg">
<path d="M6.96667 0H1.9C1.39609 0 0.912816 0.200178 0.556497 0.556497C0.200178 0.912816 0 1.39609 0 1.9V10.7667C0 11.2706 0.200178 11.7539 0.556497 12.1102C0.912816 12.4665 1.39609 12.6667 1.9 12.6667H6.96667C7.47058 12.6667 7.95385 12.4665 8.31017 12.1102C8.66649 11.7539 8.86667 11.2706 8.86667 10.7667V1.9C8.86667 1.39609 8.66649 0.912816 8.31017 0.556497C7.95385 0.200178 7.47058 0 6.96667 0ZM7.6 10.7667C7.6 10.9346 7.53327 11.0957 7.4145 11.2145C7.29573 11.3333 7.13464 11.4 6.96667 11.4H1.9C1.73203 11.4 1.57094 11.3333 1.45217 11.2145C1.33339 11.0957 1.26667 10.9346 1.26667 10.7667V1.9C1.26667 1.73203 1.33339 1.57094 1.45217 1.45217C1.57094 1.33339 1.73203 1.26667 1.9 1.26667H6.96667C7.13464 1.26667 7.29573 1.33339 7.4145 1.45217C7.53327 1.57094 7.6 1.73203 7.6 1.9V10.7667ZM6.96667 13.9333H1.9C1.39609 13.9333 0.912816 14.1335 0.556497 14.4898C0.200178 14.8461 0 15.3294 0 15.8333V17.1C0 17.6039 0.200178 18.0872 0.556497 18.4435C0.912816 18.7998 1.39609 19 1.9 19H6.96667C7.47058 19 7.95385 18.7998 8.31017 18.4435C8.66649 18.0872 8.86667 17.6039 8.86667 17.1V15.8333C8.86667 15.3294 8.66649 14.8461 8.31017 14.4898C7.95385 14.1335 7.47058 13.9333 6.96667 13.9333ZM7.6 17.1C7.6 17.268 7.53327 17.4291 7.4145 17.5478C7.29573 17.6666 7.13464 17.7333 6.96667 17.7333H1.9C1.73203 17.7333 1.57094 17.6666 1.45217 17.5478C1.33339 17.4291 1.26667 17.268 1.26667 17.1V15.8333C1.26667 15.6654 1.33339 15.5043 1.45217 15.3855C1.57094 15.2667 1.73203 15.2 1.9 15.2H6.96667C7.13464 15.2 7.29573 15.2667 7.4145 15.3855C7.53327 15.5043 7.6 15.6654 7.6 15.8333V17.1ZM17.1 6.33333H12.0333C11.5294 6.33333 11.0461 6.53351 10.6898 6.88983C10.3335 7.24615 10.1333 7.72942 10.1333 8.23333V17.1C10.1333 17.6039 10.3335 18.0872 10.6898 18.4435C11.0461 18.7998 11.5294 19 12.0333 19H17.1C17.6039 19 18.0872 18.7998 18.4435 18.4435C18.7998 18.0872 19 17.6039 19 17.1V8.23333C19 7.72942 18.7998 7.24615 18.4435 6.88983C18.0872 6.53351 17.6039 6.33333 17.1 6.33333ZM17.7333 17.1C17.7333 17.268 17.6666 17.4291 17.5478 17.5478C17.4291 17.6666 17.268 17.7333 17.1 17.7333H12.0333C11.8654 17.7333 11.7043 17.6666 11.5855 17.5478C11.4667 17.4291 11.4 17.268 11.4 17.1V8.23333C11.4 8.06536 11.4667 7.90427 11.5855 7.7855C11.7043 7.66673 11.8654 7.6 12.0333 7.6H17.1C17.268 7.6 17.4291 7.66673 17.5478 7.7855C17.6666 7.90427 17.7333 8.06536 17.7333 8.23333V17.1ZM17.1 0H12.0333C11.5294 0 11.0461 0.200178 10.6898 0.556497C10.3335 0.912816 10.1333 1.39609 10.1333 1.9V3.16667C10.1333 3.67058 10.3335 4.15385 10.6898 4.51017C11.0461 4.86649 11.5294 5.06667 12.0333 5.06667H17.1C17.6039 5.06667 18.0872 4.86649 18.4435 4.51017C18.7998 4.15385 19 3.67058 19 3.16667V1.9C19 1.39609 18.7998 0.912816 18.4435 0.556497C18.0872 0.200178 17.6039 0 17.1 0ZM17.7333 3.16667C17.7333 3.33464 17.6666 3.49573 17.5478 3.6145C17.4291 3.73327 17.268 3.8 17.1 3.8H12.0333C11.8654 3.8 11.7043 3.73327 11.5855 3.6145C11.4667 3.49573 11.4 3.33464 11.4 3.16667V1.9C11.4 1.73203 11.4667 1.57094 11.5855 1.45217C11.7043 1.33339 11.8654 1.26667 12.0333 1.26667H17.1C17.268 1.26667 17.4291 1.33339 17.5478 1.45217C17.6666 1.57094 17.7333 1.73203 17.7333 1.9V3.16667Z" fill="#495057"/>
</svg>
