<svg width="27" height="27" viewBox="0 0 27 27" fill="none" xmlns="http://www.w3.org/2000/svg">
<path d="M9.75 26H17.25C23.5 26 26 23.5 26 17.25V9.75C26 3.5 23.5 1 17.25 1H9.75C3.5 1 1 3.5 1 9.75V17.25C1 23.5 3.5 26 9.75 26Z" stroke="#DEE2E6" stroke-linecap="round" stroke-linejoin="round"/>
<path d="M18 7.33333H15V7C15 6.73478 14.8946 6.48043 14.7071 6.29289C14.5196 6.10536 14.2652 6 14 6H11.6667C11.4015 6 11.1471 6.10536 10.9596 6.29289C10.772 6.48043 10.6667 6.73478 10.6667 7V7.33333H8C7.73478 7.33333 7.48043 7.43869 7.29289 7.62623C7.10536 7.81376 7 8.06812 7 8.33333V9C7.00091 9.20755 7.06638 9.40968 7.18733 9.57835C7.30828 9.74702 7.47871 9.87388 7.675 9.94133L7.95967 19.052C7.97125 19.4856 8.15219 19.8974 8.46372 20.1992C8.77525 20.501 9.19259 20.6688 9.62633 20.6667H16.3743C16.8081 20.6688 17.2254 20.501 17.5369 20.1992C17.8485 19.8974 18.0294 19.4856 18.041 19.052L18.3257 9.94133C18.5218 9.87377 18.6921 9.74686 18.8129 9.5782C18.9338 9.40954 18.9991 9.20747 19 9V8.33333C19 8.06812 18.8946 7.81376 18.7071 7.62623C18.5196 7.43869 18.2652 7.33333 18 7.33333ZM11.3333 7C11.3333 6.91159 11.3685 6.82681 11.431 6.7643C11.4935 6.70179 11.5783 6.66667 11.6667 6.66667H14C14.0884 6.66667 14.1732 6.70179 14.2357 6.7643C14.2982 6.82681 14.3333 6.91159 14.3333 7V7.33333H11.3333V7ZM17.374 19.0313C17.3669 19.2914 17.2583 19.5385 17.0714 19.7195C16.8845 19.9005 16.6342 20.0012 16.374 20H9.62567C9.36546 20.0012 9.11512 19.9005 8.92822 19.7195C8.74132 19.5385 8.63272 19.2914 8.62567 19.0313L8.344 10H17.656L17.374 19.0313ZM18.3333 9C18.3333 9.08841 18.2982 9.17319 18.2357 9.2357C18.1732 9.29821 18.0884 9.33333 18 9.33333H8C7.91159 9.33333 7.82681 9.29821 7.7643 9.2357C7.70179 9.17319 7.66667 9.08841 7.66667 9V8.33333C7.66667 8.24493 7.70179 8.16014 7.7643 8.09763C7.82681 8.03512 7.91159 8 8 8H18C18.0884 8 18.1732 8.03512 18.2357 8.09763C18.2982 8.16014 18.3333 8.24493 18.3333 8.33333V9Z" fill="black"/>
<path d="M12.9998 11.6667C12.9114 11.6667 12.8266 11.7018 12.7641 11.7643C12.7016 11.8268 12.6665 11.9116 12.6665 12V18C12.6665 18.0884 12.7016 18.1732 12.7641 18.2357C12.8266 18.2982 12.9114 18.3334 12.9998 18.3334C13.0882 18.3334 13.173 18.2982 13.2355 18.2357C13.298 18.1732 13.3331 18.0884 13.3331 18V12C13.3331 11.9116 13.298 11.8268 13.2355 11.7643C13.173 11.7018 13.0882 11.6667 12.9998 11.6667ZM15.3425 11.6667C15.2984 11.6641 15.2542 11.6706 15.2127 11.6858C15.1713 11.7009 15.1333 11.7244 15.1012 11.7547C15.0691 11.7851 15.0436 11.8217 15.0261 11.8622C15.0087 11.9028 14.9997 11.9465 14.9998 11.9907L14.8331 17.9907C14.8319 18.0345 14.8393 18.0781 14.8549 18.119C14.8705 18.1599 14.894 18.1973 14.9241 18.2292C14.9542 18.261 14.9903 18.2866 15.0303 18.3044C15.0703 18.3223 15.1134 18.3322 15.1571 18.3334H15.1665C15.2533 18.3334 15.3367 18.2996 15.3989 18.2391C15.4612 18.1785 15.4974 18.0961 15.4998 18.0094L15.6665 12.0094C15.6677 11.9656 15.6603 11.922 15.6447 11.8811C15.6291 11.8401 15.6056 11.8027 15.5755 11.7709C15.5454 11.7391 15.5093 11.7135 15.4693 11.6956C15.4294 11.6777 15.3863 11.6679 15.3425 11.6667ZM10.6571 11.6667C10.6134 11.6679 10.5703 11.6777 10.5303 11.6956C10.4903 11.7135 10.4542 11.7391 10.4241 11.7709C10.394 11.8027 10.3705 11.8401 10.3549 11.8811C10.3393 11.922 10.3319 11.9656 10.3331 12.0094L10.4998 18.0094C10.5022 18.0961 10.5384 18.1785 10.6007 18.2391C10.6629 18.2996 10.7463 18.3334 10.8331 18.3334H10.8425C10.8863 18.3322 10.9294 18.3223 10.9693 18.3044C11.0093 18.2866 11.0454 18.261 11.0755 18.2292C11.1056 18.1973 11.1291 18.1599 11.1447 18.119C11.1603 18.0781 11.1677 18.0345 11.1665 17.9907L10.9998 11.9907C10.9986 11.9469 10.9888 11.9038 10.9709 11.8638C10.953 11.8238 10.9274 11.7878 10.8956 11.7577C10.8638 11.7276 10.8264 11.7041 10.7854 11.6885C10.7445 11.6728 10.7009 11.6654 10.6571 11.6667Z" fill="black"/>
</svg>
