<svg width="28" height="28" viewBox="0 0 28 28" fill="none" xmlns="http://www.w3.org/2000/svg">
<path d="M15.1442 9.77209L15.5535 9.36279C16.0372 8.87907 16.8791 8.87907 17.3628 9.36279L17.693 9.69302C17.8122 9.81116 17.9067 9.95171 17.9713 10.1066C18.0358 10.2615 18.069 10.4276 18.069 10.5953C18.069 10.7631 18.0358 10.9292 17.9713 11.0841C17.9067 11.239 17.8122 11.3795 17.693 11.4977L17.2837 11.907L15.1442 9.76744V9.77209ZM14.6512 10.2651L10.414 14.5023C10.2791 14.6372 10.1953 14.814 10.1814 15.0047L10.0558 16.3674C10.0419 16.5395 10.1023 16.707 10.2233 16.8326C10.3349 16.9442 10.4791 17.0047 10.6326 17.0047H10.6837L12.0465 16.8791C12.2372 16.8605 12.414 16.7767 12.5488 16.6419L16.786 12.4047L14.6465 10.2651H14.6512ZM19 18.4884C19 18.2977 18.8419 18.1395 18.6512 18.1395H9.34884C9.15814 18.1395 9 18.2977 9 18.4884C9 18.6791 9.15814 18.8372 9.34884 18.8372H18.6512C18.8419 18.8372 19 18.6791 19 18.4884Z" fill="#212529"/>
<path d="M10.1 27H17.9C24.4 27 27 24.4 27 17.9V10.1C27 3.6 24.4 1 17.9 1H10.1C3.6 1 1 3.6 1 10.1V17.9C1 24.4 3.6 27 10.1 27Z" stroke="#DEE2E6" stroke-linecap="round" stroke-linejoin="round"/>
</svg>
