<svg width="20" height="20" viewBox="0 0 20 20" fill="none" xmlns="http://www.w3.org/2000/svg">
<path d="M19.2189 0H0.781291C0.349745 0 0 0.349745 0 0.781291C0 2.95699 0.932666 5.03413 2.55888 6.47968L5.98055 9.52093C6.27403 9.78201 6.50894 10.1022 6.66984 10.4606C6.83074 10.8189 6.91399 11.2072 6.91411 11.6V19.2189C6.91411 19.8414 7.60997 20.2147 8.12863 19.8687L12.7381 16.7959C12.8451 16.7246 12.9328 16.6279 12.9935 16.5145C13.0542 16.4011 13.086 16.2745 13.086 16.1459V11.6C13.0861 11.2072 13.1694 10.8189 13.3303 10.4606C13.4912 10.1022 13.7261 9.78201 14.0196 9.52093L17.4411 6.47968C19.0673 5.03413 20 2.95699 20 0.781291C20 0.349745 19.6503 0 19.2189 0ZM16.403 5.31173L12.9815 8.3531C12.0549 9.17681 11.5234 10.3602 11.5234 11.5999V15.7278L8.47654 17.759V11.6001C8.47631 10.9866 8.34628 10.3802 8.09499 9.82057C7.84369 9.26096 7.47683 8.76086 7.0185 8.35314L3.59699 5.31192C2.50044 4.33699 1.80049 3.00113 1.61309 1.5625H18.3869C18.1995 3.00113 17.4997 4.33695 16.403 5.31173Z" fill="black"/>
</svg>
