<svg width="38" height="38" viewBox="0 0 38 38" fill="none" xmlns="http://www.w3.org/2000/svg">
<circle cx="19" cy="19" r="19" fill="#F87401" fill-opacity="0.1"/>
<path d="M18.99 12.3342C18.8134 12.3362 18.6447 12.4084 18.521 12.5349C18.3972 12.6615 18.3285 12.8321 18.3299 13.0095V18.3688C18.3299 18.5466 18.4002 18.7171 18.5254 18.8428C18.6507 18.9684 18.8205 19.0391 18.9976 19.0391C19.1747 19.0391 19.3445 18.9684 19.4697 18.8428C19.5949 18.7171 19.6653 18.5466 19.6653 18.3688V13.0095C19.666 12.9204 19.6489 12.8321 19.6152 12.7497C19.5815 12.6673 19.5317 12.5924 19.4689 12.5296C19.406 12.4667 19.3313 12.417 19.249 12.3835C19.1668 12.3499 19.0788 12.3332 18.99 12.3342ZM22.8804 13.6747C22.8586 13.6736 22.8367 13.6736 22.8149 13.6747C22.6827 13.6857 22.5567 13.736 22.4531 13.8192C22.3495 13.9024 22.2729 14.0148 22.2332 14.1418C22.1934 14.2689 22.1923 14.405 22.23 14.5327C22.2676 14.6604 22.3423 14.774 22.4445 14.8589C23.601 15.8441 24.3318 17.3106 24.3318 18.9559C24.3318 21.9291 21.9532 24.3254 19.0001 24.3254C18.2975 24.324 17.6022 24.1841 16.9538 23.9137C16.3053 23.6432 15.7167 23.2475 15.2214 22.7492C14.7261 22.2509 14.3341 21.6598 14.0676 21.0098C13.8011 20.3597 13.6655 19.6635 13.6684 18.961C13.6684 17.3232 14.3891 15.8668 15.533 14.8791C15.6042 14.8234 15.6634 14.7538 15.707 14.6745C15.7506 14.5953 15.7778 14.508 15.7869 14.4178C15.796 14.3277 15.7867 14.2367 15.7598 14.1503C15.7329 14.0639 15.6888 13.9838 15.6301 13.915C15.5715 13.8461 15.4996 13.7899 15.4187 13.7497C15.3379 13.7096 15.2497 13.6863 15.1597 13.6812C15.0696 13.6762 14.9794 13.6895 14.8946 13.7205C14.8098 13.7514 14.7321 13.7992 14.6662 13.8611C13.9336 14.4924 13.3459 15.2744 12.9432 16.1537C12.5406 17.033 12.3324 17.9888 12.333 18.9559C12.331 20.7291 13.0317 22.4309 14.2818 23.6885C15.5319 24.9462 17.2294 25.6572 19.0026 25.6658C20.7756 25.6578 22.4729 24.9469 23.7224 23.689C24.9718 22.431 25.6712 20.7289 25.6672 18.9559C25.6672 16.9099 24.7525 15.0706 23.3088 13.841C23.1901 13.7364 23.0383 13.6775 22.8804 13.6747Z" fill="#F87401"/>
</svg>
