<svg width="38" height="38" viewBox="0 0 38 38" fill="none" xmlns="http://www.w3.org/2000/svg">
<circle cx="19" cy="19" r="19" fill="#F87401" fill-opacity="0.1"/>
<path d="M19 8C14.5887 8 11 11.5887 11 16C11 17.4522 11.6513 19.0141 11.6786 19.08C11.8889 19.5793 12.304 20.3548 12.6033 20.8094L18.0885 29.1205C18.3129 29.4612 18.6452 29.6565 19 29.6565C19.3548 29.6565 19.6871 29.4612 19.9115 29.1209L25.3972 20.8094C25.6969 20.3548 26.1115 19.5793 26.3219 19.08C26.3492 19.0146 27 17.4527 27 16C27 11.5887 23.4113 8 19 8ZM25.4541 18.7148C25.2664 19.1624 24.88 19.8838 24.6113 20.2913L19.1256 28.6028C19.0174 28.7671 18.9831 28.7671 18.8748 28.6028L13.3892 20.2913C13.1205 19.8838 12.7341 19.1619 12.5464 18.7144C12.5384 18.6951 11.9412 17.2574 11.9412 16C11.9412 12.1078 15.1078 8.94118 19 8.94118C22.8922 8.94118 26.0588 12.1078 26.0588 16C26.0588 17.2593 25.4602 18.7007 25.4541 18.7148Z" fill="#F87401"/>
<path d="M19.0002 11.7652C16.6647 11.7652 14.7649 13.6655 14.7649 16.0005C14.7649 18.3356 16.6647 20.2358 19.0002 20.2358C21.3357 20.2358 23.2355 18.3356 23.2355 16.0005C23.2355 13.6655 21.3357 11.7652 19.0002 11.7652ZM19.0002 19.2946C17.1842 19.2946 15.7061 17.817 15.7061 16.0005C15.7061 14.1841 17.1842 12.7064 19.0002 12.7064C20.8162 12.7064 22.2943 14.1841 22.2943 16.0005C22.2943 17.817 20.8162 19.2946 19.0002 19.2946Z" fill="#F87401"/>
</svg>
