<svg width="19" height="19" viewBox="0 0 19 19" fill="none" xmlns="http://www.w3.org/2000/svg">
<path d="M14.6571 19H4.07143C1.83214 19 0 17.1679 0 14.9286V14.7929L0.407143 3.93571C0.475 1.69643 2.30714 0 4.47857 0H14.25C16.4214 0 18.2536 1.69643 18.3214 3.93571L18.7286 14.7929C18.7964 15.8786 18.3893 16.8964 17.6429 17.7107C16.8964 18.525 15.8786 19 14.7929 19H14.6571ZM4.47857 1.35714C2.98571 1.35714 1.83214 2.51071 1.76429 3.93571L1.35714 14.9286C1.35714 16.4214 2.57857 17.6429 4.07143 17.6429H14.7929C15.5393 17.6429 16.2179 17.3036 16.6929 16.7607C17.1679 16.2179 17.4393 15.5393 17.4393 14.7929L17.0321 3.93571C16.9643 2.44286 15.8107 1.35714 14.3179 1.35714H4.47857Z" fill="#495057"/>
<path d="M9.36438 8.14293C6.71795 8.14293 4.61438 6.03936 4.61438 3.39293C4.61438 2.98578 4.88581 2.71436 5.29295 2.71436C5.70009 2.71436 5.97152 2.98578 5.97152 3.39293C5.97152 5.29293 7.46438 6.78578 9.36438 6.78578C11.2644 6.78578 12.7572 5.29293 12.7572 3.39293C12.7572 2.98578 13.0287 2.71436 13.4358 2.71436C13.843 2.71436 14.1144 2.98578 14.1144 3.39293C14.1144 6.03936 12.0108 8.14293 9.36438 8.14293Z" fill="#495057"/>
</svg>
