<svg width="19" height="19" viewBox="0 0 19 19" fill="none" xmlns="http://www.w3.org/2000/svg">
<path fill-rule="evenodd" clip-rule="evenodd" d="M0 14.7929L0.407143 3.93571C0.475 1.69643 2.30714 0 4.47857 0H14.25C16.4214 0 18.2536 1.69643 18.3214 3.93571L18.7286 14.7929C18.7964 15.8786 18.3893 16.8964 17.6429 17.7107C16.8964 18.525 15.8786 19 14.7929 19H14.6571H4.07143C1.83214 19 0 17.1679 0 14.9286V14.7929Z" fill="#F87401"/>
<path d="M9.36432 7.64293C6.99403 7.64293 5.11432 5.76321 5.11432 3.39293C5.11432 3.30298 5.14212 3.26688 5.15448 3.25452C5.16684 3.24216 5.20294 3.21436 5.29289 3.21436C5.38284 3.21436 5.41894 3.24216 5.4313 3.25452C5.44366 3.26688 5.47146 3.30298 5.47146 3.39293C5.47146 5.56907 7.18818 7.28578 9.36432 7.28578C11.5405 7.28578 13.2572 5.56907 13.2572 3.39293C13.2572 3.30298 13.285 3.26688 13.2973 3.25452C13.3097 3.24216 13.3458 3.21436 13.4357 3.21436C13.5257 3.21436 13.5618 3.24216 13.5742 3.25452C13.5865 3.26688 13.6143 3.30298 13.6143 3.39293C13.6143 5.76321 11.7346 7.64293 9.36432 7.64293Z" stroke="#FFF"/>
</svg>
