<svg width="20" height="21" viewBox="0 0 20 21" fill="none" xmlns="http://www.w3.org/2000/svg">
<path d="M15.6461 20.2819H4.34613C1.95576 20.2819 0 18.3262 0 15.9358V15.7909L0.434613 4.20126C0.507048 1.81089 2.46281 0 4.78074 0H15.2114C17.5294 0 19.4851 1.81089 19.5576 4.20126L19.9922 15.7909C20.0646 16.9499 19.63 18.0364 18.8332 18.9057C18.0364 19.7749 16.9499 20.2819 15.7909 20.2819H15.6461ZM4.78074 1.44871C3.18716 1.44871 1.95576 2.68011 1.88332 4.20126L1.44871 15.9358C1.44871 17.5294 2.75255 18.8332 4.34613 18.8332H15.7909C16.5877 18.8332 17.3121 18.471 17.8191 17.8916C18.3262 17.3121 18.6159 16.5877 18.6159 15.7909L18.1813 4.20126C18.1089 2.60768 16.8775 1.44871 15.2839 1.44871H4.78074Z" fill="black"/>
<path d="M9.99614 8.69224C7.17116 8.69224 4.92566 6.44674 4.92566 3.62175C4.92566 3.18714 5.2154 2.8974 5.65001 2.8974C6.08463 2.8974 6.37437 3.18714 6.37437 3.62175C6.37437 5.64995 7.96795 7.24353 9.99614 7.24353C12.0243 7.24353 13.6179 5.64995 13.6179 3.62175C13.6179 3.18714 13.9077 2.8974 14.3423 2.8974C14.7769 2.8974 15.0666 3.18714 15.0666 3.62175C15.0666 6.44674 12.8211 8.69224 9.99614 8.69224Z" fill="black"/>
</svg>
