<svg width="16" height="19" viewBox="0 0 16 19" fill="none" xmlns="http://www.w3.org/2000/svg">
<path d="M7.80597 9.15232C9.0633 9.15232 10.1521 8.70134 11.0417 7.81157C11.9313 6.92199 12.3823 5.83351 12.3823 4.57603C12.3823 3.31893 11.9313 2.23033 11.0416 1.34042C10.1518 0.45095 9.06315 0 7.80597 0C6.54846 0 5.45994 0.45095 4.57036 1.34057C3.68078 2.23018 3.22964 3.31881 3.22964 4.57603C3.22964 5.83351 3.68074 6.92214 4.57051 7.81176C5.46027 8.70123 6.5489 9.15232 7.80597 9.15232ZM15.8133 14.61C15.7876 14.2398 15.7357 13.8359 15.6593 13.4094C15.5822 12.9798 15.4829 12.5736 15.364 12.2024C15.2413 11.8187 15.0743 11.4398 14.8679 11.0766C14.6536 10.6997 14.402 10.3715 14.1196 10.1015C13.8243 9.81899 13.4628 9.59184 13.0447 9.42612C12.6281 9.26135 12.1664 9.17786 11.6726 9.17786C11.4786 9.17786 11.291 9.25742 10.9288 9.49328C10.6713 9.66096 10.413 9.82746 10.154 9.99277C9.90508 10.1514 9.56791 10.3 9.15144 10.4345C8.74513 10.566 8.33259 10.6326 7.92539 10.6326C7.51823 10.6326 7.1058 10.566 6.69905 10.4345C6.28305 10.3001 5.94588 10.1515 5.69725 9.99292C5.40891 9.80867 5.14803 9.64053 4.92174 9.4931C4.55993 9.25727 4.3722 9.17767 4.17826 9.17767C3.68423 9.17767 3.2227 9.26131 2.80623 9.4263C2.38846 9.5917 2.02679 9.81884 1.73122 10.1016C1.449 10.3718 1.19722 10.6998 0.983246 11.0766C0.776993 11.4397 0.610003 11.8185 0.48706 12.2025C0.368311 12.5737 0.269044 12.9798 0.191932 13.4094C0.115524 13.8353 0.0636455 14.2393 0.0379661 14.6104C0.012421 14.9838 -0.000240769 15.358 3.46651e-06 15.7324C3.46651e-06 16.7242 0.315282 17.5271 0.937008 18.1192C1.55105 18.7036 2.36352 19 3.35155 19H12.5001C13.4882 19 14.3003 18.7037 14.9145 18.1193C15.5364 17.5275 15.8517 16.7245 15.8517 15.7322C15.8515 15.3494 15.8386 14.9718 15.8133 14.61Z" fill="#F87401"/>
</svg>
