<svg width="16" height="19" viewBox="0 0 16 19" fill="none" xmlns="http://www.w3.org/2000/svg">
<path d="M7.80603 9.1524C9.06337 9.1524 10.152 8.70141 11.0418 7.81164C11.9313 6.92205 12.3824 5.83356 12.3824 4.57607C12.3824 3.31895 11.9314 2.23035 11.0416 1.34043C10.1519 0.450953 9.06322 0 7.80603 0C6.54851 0 5.45998 0.450953 4.57039 1.34058C3.6808 2.2302 3.22967 3.31884 3.22967 4.57607C3.22967 5.83356 3.68077 6.9222 4.57043 7.81182C5.46031 8.70129 6.54895 9.1524 7.80599 9.1524H7.80603ZM5.35781 2.12785C6.0404 1.44522 6.84119 1.11343 7.80603 1.11343C8.77073 1.11343 9.57162 1.44522 10.2544 2.12785C10.937 2.81059 11.2689 3.61148 11.2689 4.57603C11.2689 5.54087 10.937 6.34166 10.2544 7.0244C9.57162 7.70717 8.77073 8.03897 7.80603 8.03897C6.84145 8.03897 6.04074 7.70702 5.35781 7.0244C4.67504 6.34181 4.3431 5.54091 4.3431 4.57607C4.3431 3.61148 4.67504 2.81059 5.35781 2.12785ZM15.8134 14.6101C15.7877 14.2399 15.7358 13.836 15.6594 13.4095C15.5823 12.9799 15.483 12.5737 15.3641 12.2025C15.2412 11.8187 15.0744 11.4399 14.8678 11.0767C14.6537 10.6998 14.4021 10.3716 14.1197 10.1016C13.8244 9.81907 13.4629 9.59192 13.0448 9.42619C12.6282 9.26142 12.1665 9.17793 11.6726 9.17793C11.4787 9.17793 11.2911 9.25749 10.9289 9.49336C10.6714 9.66104 10.4131 9.82754 10.1541 9.99285C9.90516 10.1515 9.56798 10.3 9.15151 10.4346C8.7452 10.566 8.33265 10.6327 7.9253 10.6327C7.51828 10.6327 7.1057 10.566 6.6991 10.4346C6.2831 10.3002 5.94578 10.1516 5.69729 9.993C5.40895 9.80875 5.14807 9.64061 4.92178 9.49317C4.55981 9.25734 4.37223 9.17774 4.17829 9.17774C3.68426 9.17774 3.22273 9.26139 2.80625 9.42638C2.38847 9.59177 2.0268 9.81892 1.73123 10.1017C1.44886 10.3719 1.19722 10.6999 0.98325 11.0767C0.776996 11.4398 0.610004 11.8186 0.487061 12.2026C0.368311 12.5738 0.269043 12.9799 0.19193 13.4095C0.115373 13.8354 0.0636426 14.2394 0.0379629 14.6105C0.0127285 14.9733 0 15.351 0 15.7325C0 16.7243 0.315281 17.5272 0.937012 18.1194C1.55106 18.7038 2.36342 19 3.35157 19H12.5002C13.4881 19 14.3004 18.7037 14.9146 18.1194C15.5365 17.5276 15.8518 16.7245 15.8518 15.7323C15.8516 15.3495 15.8388 14.9719 15.8134 14.6101ZM14.1469 17.3127C13.7412 17.6988 13.2025 17.8866 12.5 17.8866H3.35161C2.64902 17.8866 2.11034 17.6988 1.70473 17.3129C1.30684 16.934 1.11347 16.417 1.11347 15.7325C1.11347 15.3765 1.12519 15.025 1.14872 14.6875C1.17158 14.3564 1.21841 13.9927 1.28788 13.6062C1.35642 13.2246 1.44367 12.8664 1.54746 12.5421C1.64706 12.2311 1.78288 11.9233 1.95132 11.6267C2.11208 11.344 2.29703 11.1015 2.50113 10.9061C2.69206 10.7233 2.93272 10.5737 3.21623 10.4615C3.47845 10.3577 3.77317 10.3009 4.09309 10.2923C4.13205 10.3131 4.20152 10.3527 4.314 10.426C4.54289 10.5752 4.8067 10.7454 5.09838 10.9316C5.42717 11.1412 5.8507 11.3305 6.35676 11.4939C6.8741 11.6612 7.40176 11.7461 7.92549 11.7461C8.44925 11.7461 8.97702 11.6612 9.4941 11.494C10.0006 11.3304 10.424 11.1412 10.7532 10.9313C11.0517 10.7406 11.3081 10.5753 11.537 10.426C11.6495 10.3528 11.7189 10.3131 11.7579 10.2924C12.078 10.3009 12.3727 10.3577 12.635 10.4615C12.9184 10.5737 13.1591 10.7235 13.35 10.9061C13.5541 11.1013 13.739 11.3439 13.8998 11.6268C14.0684 11.9233 14.2044 12.2313 14.3038 12.542C14.4078 12.8667 14.4951 13.2247 14.5636 13.6061C14.6329 13.9933 14.6798 14.3571 14.7027 14.6876V14.6879C14.7264 15.0241 14.7382 15.3755 14.7384 15.7325C14.7382 16.4172 14.5449 16.9341 14.147 17.3127H14.1469Z" fill="#495057"/>
</svg>
