<svg width="38" height="38" viewBox="0 0 38 38" fill="none" xmlns="http://www.w3.org/2000/svg">
<circle cx="19" cy="19" r="19" fill="#F87401" fill-opacity="0.1"/>
<path d="M19 8C15.6667 8 13 10.6667 13 14V16.6667C11.8667 16.6667 11 17.5333 11 18.6667V27.3333C11 28.4667 11.8667 29.3333 13 29.3333H25C26.1333 29.3333 27 28.4667 27 27.3333V18.6667C27 17.5333 26.1333 16.6667 25 16.6667V14C25 10.6667 22.3333 8 19 8ZM25.6667 18.6667V27.3333C25.6667 27.7333 25.4 28 25 28H13C12.6 28 12.3333 27.7333 12.3333 27.3333V18.6667C12.3333 18.2667 12.6 18 13 18H25C25.4 18 25.6667 18.2667 25.6667 18.6667ZM14.3333 16.6667V14C14.3333 11.4 16.4 9.33333 19 9.33333C21.6 9.33333 23.6667 11.4 23.6667 14V16.6667H14.3333Z" fill="#F87401"/>
<path d="M19 20C17.8667 20 17 20.8667 17 22C17 22.8667 17.5333 23.6 18.3333 23.8667V25.3333C18.3333 25.7333 18.6 26 19 26C19.4 26 19.6667 25.7333 19.6667 25.3333V23.8667C20.4667 23.6 21 22.8667 21 22C21 20.8667 20.1333 20 19 20ZM19 22.6667C18.6 22.6667 18.3333 22.4 18.3333 22C18.3333 21.6 18.6 21.3333 19 21.3333C19.4 21.3333 19.6667 21.6 19.6667 22C19.6667 22.4 19.4 22.6667 19 22.6667Z" fill="#F87401"/>
</svg>
