<svg width="38" height="38" viewBox="0 0 38 38" fill="none" xmlns="http://www.w3.org/2000/svg">
<circle cx="19" cy="19" r="19" fill="#F87401" fill-opacity="0.1"/>
<path d="M19 27.3698C18.7558 27.3696 18.5157 27.3069 18.3026 27.1877L15.5374 25.6517C14.1627 24.8874 13.0172 23.7696 12.2194 22.414C11.4217 21.0584 11.0007 19.5142 11 17.9413V13.6779C11 13.3232 11.1315 12.981 11.3691 12.7176C11.6068 12.4542 11.9337 12.2882 12.2866 12.2519C13.3867 12.1353 14.4695 11.8905 15.5128 11.5224C16.4694 11.1843 17.387 10.7447 18.2501 10.2113C18.4758 10.0731 18.7353 10 19 10C19.2647 10 19.5242 10.0731 19.7499 10.2113C20.613 10.7446 21.5307 11.1841 22.4872 11.5224C23.5305 11.8905 24.6133 12.1353 25.7134 12.2519C26.0663 12.2882 26.3932 12.4542 26.6309 12.7176C26.8685 12.981 27 13.3232 27 13.6779V17.9413C26.9993 19.5142 26.5783 21.0584 25.7806 22.414C24.9828 23.7696 23.8373 24.8874 22.4626 25.6517L19.6974 27.1885C19.4842 27.3075 19.2441 27.3699 19 27.3698ZM19 11.2303C18.9639 11.23 18.9284 11.2397 18.8974 11.2582C17.9596 11.8379 16.9625 12.3157 15.9231 12.6835C14.7893 13.0836 13.6126 13.3496 12.417 13.4761C12.3662 13.4804 12.3189 13.5036 12.2844 13.5411C12.2499 13.5787 12.2308 13.6278 12.2308 13.6788V17.9421C12.2312 19.2956 12.5934 20.6243 13.2798 21.7908C13.9662 22.9573 14.9518 23.9192 16.1348 24.5768L18.8999 26.1128C18.9302 26.1298 18.9644 26.1388 18.9992 26.1388C19.034 26.1388 19.0681 26.1298 19.0985 26.1128L21.8652 24.5768C23.0482 23.9192 24.0338 22.9573 24.7202 21.7908C25.4066 20.6243 25.7688 19.2956 25.7692 17.9421V13.6779C25.7692 13.627 25.7501 13.5779 25.7156 13.5403C25.6811 13.5028 25.6338 13.4796 25.583 13.4753C24.3874 13.3488 23.2107 13.0828 22.0769 12.6826C21.0376 12.3154 20.0405 11.8382 19.1026 11.2591C19.0718 11.24 19.0362 11.2301 19 11.2303Z" fill="#F87401"/>
<path d="M21.545 16.2243C21.8714 16.4117 22.0769 16.7623 22.0769 17.1431V19.4705C22.0769 19.8452 21.8775 20.1959 21.545 20.3893L19.532 21.5499C19.3688 21.6467 19.1874 21.689 19 21.689C18.8126 21.689 18.6313 21.6406 18.4681 21.5499L16.4551 20.3893C16.1286 20.2019 15.9231 19.8513 15.9231 19.4705V17.1431C15.9231 16.7683 16.1226 16.4177 16.4551 16.2243L18.4681 15.0636C18.7945 14.8762 19.1995 14.8762 19.5259 15.0636L21.5389 16.2243H21.545ZM17.2893 16.7925L18.9275 17.7355C18.9758 17.7597 19.0302 17.7597 19.0786 17.7355L20.7168 16.7925L19.0786 15.8495C19.0786 15.8495 19.0302 15.8313 19.0061 15.8313C18.9819 15.8313 18.9517 15.8374 18.9335 15.8495L17.2953 16.7925H17.2893ZM18.5587 20.5465V18.5577C18.5587 18.5577 18.4983 18.5395 18.4681 18.5214L16.8299 17.5784V19.4644C16.8299 19.5188 16.8601 19.5672 16.9024 19.5974L18.5527 20.5465H18.5587ZM21.1641 19.4644V17.5784L19.5259 18.5214C19.5259 18.5214 19.4836 18.5395 19.4655 18.5456V20.5344L21.0856 19.5974C21.1339 19.5732 21.1581 19.5188 21.1581 19.4644H21.1641Z" fill="#F87401"/>
</svg>
