<svg width="38" height="38" viewBox="0 0 38 38" fill="none" xmlns="http://www.w3.org/2000/svg">
<circle cx="19" cy="19" r="19" fill="#F87401" fill-opacity="0.1"/>
<path d="M19 27.3698C18.7558 27.3696 18.5157 27.3069 18.3026 27.1877L15.5374 25.6517C14.1627 24.8874 13.0172 23.7696 12.2194 22.414C11.4217 21.0584 11.0007 19.5142 11 17.9413V13.6779C11 13.3232 11.1315 12.981 11.3691 12.7176C11.6068 12.4542 11.9337 12.2882 12.2866 12.2519C13.3867 12.1353 14.4695 11.8905 15.5128 11.5224C16.4694 11.1843 17.387 10.7447 18.2501 10.2113C18.4758 10.0731 18.7353 10 19 10C19.2647 10 19.5242 10.0731 19.7499 10.2113C20.613 10.7446 21.5307 11.1841 22.4872 11.5224C23.5305 11.8905 24.6133 12.1353 25.7134 12.2519C26.0663 12.2882 26.3932 12.4542 26.6309 12.7176C26.8685 12.981 27 13.3232 27 13.6779V17.9413C26.9993 19.5142 26.5783 21.0584 25.7806 22.414C24.9828 23.7696 23.8373 24.8874 22.4626 25.6517L19.6974 27.1885C19.4842 27.3075 19.2441 27.3699 19 27.3698ZM19 11.2303C18.9639 11.23 18.9284 11.2397 18.8974 11.2582C17.9596 11.8379 16.9625 12.3157 15.9231 12.6835C14.7893 13.0836 13.6126 13.3496 12.417 13.4761C12.3662 13.4804 12.3189 13.5036 12.2844 13.5411C12.2499 13.5787 12.2308 13.6278 12.2308 13.6788V17.9421C12.2312 19.2956 12.5934 20.6243 13.2798 21.7908C13.9662 22.9573 14.9518 23.9192 16.1348 24.5768L18.8999 26.1128C18.9302 26.1298 18.9644 26.1388 18.9992 26.1388C19.034 26.1388 19.0681 26.1298 19.0985 26.1128L21.8652 24.5768C23.0482 23.9192 24.0338 22.9573 24.7202 21.7908C25.4066 20.6243 25.7688 19.2956 25.7692 17.9421V13.6779C25.7692 13.627 25.7501 13.5779 25.7156 13.5403C25.6811 13.5028 25.6338 13.4796 25.583 13.4753C24.3874 13.3488 23.2107 13.0828 22.0769 12.6826C21.0376 12.3154 20.0405 11.8382 19.1026 11.2591C19.0718 11.24 19.0362 11.2301 19 11.2303Z" fill="#F87401"/>
<path d="M18.5899 20.5128C18.4392 20.513 18.2937 20.4574 18.1813 20.3569L16.3351 18.7159C16.2207 18.6056 16.1533 18.4553 16.1472 18.2965C16.1411 18.1376 16.1966 17.9826 16.3023 17.8638C16.4079 17.745 16.5554 17.6717 16.7139 17.6592C16.8723 17.6468 17.0295 17.6961 17.1524 17.7969L18.5505 19.0392L21.218 16.1945C21.2729 16.1341 21.3393 16.0854 21.4133 16.0509C21.4872 16.0165 21.5673 15.9971 21.6488 15.9939C21.7303 15.9907 21.8116 16.0037 21.8881 16.0322C21.9645 16.0607 22.0345 16.1041 22.094 16.1599C22.1535 16.2157 22.2013 16.2828 22.2347 16.3572C22.268 16.4317 22.2862 16.512 22.2882 16.5936C22.2902 16.6751 22.276 16.7563 22.2464 16.8323C22.2168 16.9083 22.1723 16.9776 22.1157 17.0363L19.0387 20.3184C18.9813 20.3799 18.9118 20.4288 18.8346 20.4623C18.7573 20.4958 18.6741 20.513 18.5899 20.5128Z" fill="#F87401"/>
</svg>
