<svg width="38" height="38" viewBox="0 0 38 38" fill="none" xmlns="http://www.w3.org/2000/svg">
<circle cx="19" cy="19" r="19" fill="#F87401" fill-opacity="0.1"/>
<path d="M19 26.1174C18.7722 26.1174 18.5526 26.0349 18.3815 25.885C17.7351 25.3198 17.1119 24.7887 16.5621 24.3202L16.5593 24.3178C14.9474 22.9441 13.5554 21.7578 12.5869 20.5892C11.5043 19.2829 11 18.0442 11 16.691C11 15.3764 11.4508 14.1634 12.2693 13.2756C13.0975 12.3773 14.234 11.8826 15.4697 11.8826C16.3933 11.8826 17.2391 12.1746 17.9837 12.7504C18.3594 13.041 18.6999 13.3967 19 13.8116C19.3002 13.3967 19.6406 13.041 20.0165 12.7504C20.761 12.1746 21.6068 11.8826 22.5304 11.8826C23.766 11.8826 24.9026 12.3773 25.7308 13.2756C26.5493 14.1634 27 15.3764 27 16.691C27 18.0442 26.4958 19.2829 25.4132 20.5891C24.4447 21.7578 23.0528 22.944 21.4412 24.3175C20.8904 24.7868 20.2663 25.3187 19.6184 25.8853C19.4472 26.035 19.2275 26.1175 19 26.1174ZM15.4697 12.8198C14.4989 12.8198 13.6071 13.2073 12.9583 13.9109C12.2998 14.6251 11.9371 15.6124 11.9371 16.691C11.9371 17.8291 12.3601 18.8469 13.3085 19.9912C14.2251 21.0973 15.5885 22.2592 17.1671 23.6045L17.17 23.6069C17.7219 24.0773 18.3475 24.6105 18.9987 25.1798C19.6537 24.6094 20.2803 24.0753 20.8333 23.6043C22.4118 22.2589 23.775 21.0973 24.6917 19.9912C25.6399 18.8469 26.0629 17.8291 26.0629 16.691C26.0629 15.6124 25.7002 14.6251 25.0417 13.9109C24.3931 13.2073 23.5011 12.8198 22.5304 12.8198C21.8192 12.8198 21.1663 13.0459 20.5897 13.4917C20.0759 13.8892 19.718 14.3916 19.5082 14.7432C19.4003 14.9239 19.2103 15.0318 19 15.0318C18.7897 15.0318 18.5997 14.9239 18.4918 14.7432C18.2821 14.3916 17.9242 13.8892 17.4103 13.4917C16.8338 13.0459 16.1808 12.8198 15.4697 12.8198Z" fill="#F87401"/>
</svg>
